<?xml version="1.0" encoding="UTF-8"?>
<svg width="1638px" height="689px" viewBox="0 0 1638 689" version="1.1" xmlns="http://www.w3.org/2000/svg" xmlns:xlink="http://www.w3.org/1999/xlink">
    <title>Helix-Black</title>
    <g id="Helix-Black" stroke="none" stroke-width="1" fill="none" fill-rule="evenodd">
        <rect fill="#000000" x="0" y="0" width="1638" height="689"></rect>
        <path d="M531,197 L531,345 L275,493 L275,345 L531,197 Z M787,197 L787,345 L531,493 L531,345 L787,197 Z" id="形状结合" fill="#93DAFC"></path>
        <path d="M275,197 L531,345 L531,493 L275,345 L275,197 Z M531,197 L787,345 L787,493 L531,345 L531,197 Z" id="形状结合" fill="#00B2FF"></path>
        <path d="M992.104,268 L961.298,268 L961.298,334.241625 L898.631,334.241625 L898.631,268 L867.825,268 L867.825,427 L898.631,427 L898.631,362.515625 L961.298,362.515625 L961.298,427 L992.104,427 L992.104,268 Z M1124.612,377.369 C1124.612,377.369 1125.034,373.36 1125.034,368.507 C1125.034,335.802 1102.879,310.904 1070.174,310.904 C1037.469,310.904 1014.681,335.802 1014.681,368.507 C1014.681,402.478 1037.68,426.532 1070.385,426.532 C1095.916,426.532 1116.172,411.129 1122.713,388.763 L1092.54,388.763 C1088.953,396.781 1080.302,400.79 1071.229,400.79 C1056.248,400.79 1046.542,392.561 1044.432,377.369 L1124.612,377.369 Z M1069.963,334.958 C1083.889,334.958 1092.962,343.398 1095.072,355.847 L1044.854,355.847 C1047.386,343.187 1056.248,334.958 1069.963,334.958 Z M1175.252,427 L1175.252,268 L1145.29,268 L1145.29,427 L1175.252,427 Z M1217.663,304.088 C1228.213,304.088 1235.809,296.703 1235.809,286.153 C1235.809,275.603 1228.213,268.007 1217.663,268.007 C1207.113,268.007 1199.517,275.603 1199.517,286.153 C1199.517,296.703 1207.113,304.088 1217.663,304.088 Z M1202.682,427 L1232.644,427 L1232.644,316.436 L1202.682,316.436 L1202.682,427 Z M1361.354,316.436 L1325.273,316.436 L1303.329,348.086 L1281.385,316.436 L1245.304,316.436 L1286.449,370.874 L1244.038,427 L1280.119,427 L1303.329,393.451 L1326.539,427 L1362.62,427 L1320.209,370.874 L1361.354,316.436 Z" id="形状结合" fill="#00B2FF" fill-rule="nonzero"></path>
    </g>
</svg>